<?xml version="1.0" encoding="UTF-8"?>
<svg xmlns="http://www.w3.org/2000/svg" xmlns:xlink="http://www.w3.org/1999/xlink" width="128px" height="128px" viewBox="0 0 128 128" version="1.1">
<g id="surface1">
<path style=" stroke:none;fill-rule:nonzero;fill:rgb(100%,75.686275%,2.745098%);fill-opacity:1;" d="M 67.539062 0.171875 C 67.308594 0.257812 65.960938 0.894531 64.539062 1.617188 C 63.121094 2.324219 61.609375 3.082031 61.199219 3.289062 C 60.789062 3.480469 59.480469 4.183594 58.300781 4.824219 C 57.121094 5.476562 55.480469 6.371094 54.648438 6.820312 C 52.980469 7.714844 52.460938 8.113281 52.300781 8.59375 C 52.058594 9.371094 52.300781 10.9375 52.738281 11.453125 C 52.851562 11.589844 53.121094 11.710938 53.328125 11.710938 C 53.871094 11.710938 57.949219 9.351562 58.308594 8.835938 C 58.621094 8.386719 58.851562 7.269531 58.769531 6.578125 C 58.699219 5.941406 58.878906 5.0625 59.128906 4.789062 C 59.511719 4.355469 60.761719 3.789062 61.320312 3.789062 C 61.621094 3.789062 62 3.910156 62.199219 4.097656 C 62.589844 4.425781 63 5.527344 63 6.25 C 63 6.648438 63.03125 6.71875 63.230469 6.628906 C 63.351562 6.597656 64.851562 6.078125 66.550781 5.492188 C 68.261719 4.925781 69.75 4.410156 69.871094 4.355469 C 70.078125 4.269531 70.078125 4.253906 69.929688 3.394531 C 69.730469 2.171875 69.300781 0.878906 68.988281 0.480469 C 68.679688 0.0859375 68.109375 -0.0351562 67.539062 0.171875 Z M 67.539062 0.171875 "/>
<path style=" stroke:none;fill-rule:nonzero;fill:rgb(100%,75.686275%,2.745098%);fill-opacity:1;" d="M 60.191406 6.769531 L 59.890625 7.886719 L 60.101562 9.265625 C 60.328125 10.832031 60.980469 14.121094 61.121094 14.363281 C 61.261719 14.640625 62.078125 13.847656 62.300781 13.226562 C 62.558594 12.46875 62.550781 12.175781 62.191406 9.867188 C 61.828125 7.613281 61.640625 7.0625 60.96875 6.234375 L 60.5 5.648438 Z M 60.191406 6.769531 "/>
<path style=" stroke:none;fill-rule:nonzero;fill:rgb(100%,75.686275%,2.745098%);fill-opacity:1;" d="M 78.601562 10.59375 C 77.390625 10.832031 74.910156 11.589844 74.5 11.847656 C 74.339844 11.953125 74.738281 12.347656 76.328125 13.710938 C 79.421875 16.378906 80.308594 16.878906 82.199219 17 C 83.171875 17.066406 83.738281 17.015625 84.75 16.722656 C 87.179688 16.070312 92.359375 15.414062 91.851562 15.828125 C 91.738281 15.914062 89.539062 16.414062 86.960938 16.914062 L 82.269531 17.824219 L 83.160156 18.550781 C 84.328125 19.496094 85.550781 20.097656 86.820312 20.324219 C 87.941406 20.53125 88.289062 20.476562 91.25 19.71875 C 92.949219 19.289062 95.941406 18.910156 96.601562 19.03125 C 96.789062 19.066406 97.378906 19.152344 97.898438 19.203125 C 98.421875 19.253906 99.140625 19.410156 99.5 19.53125 L 100.148438 19.753906 L 99.601562 19.859375 C 99.300781 19.910156 98.199219 20.011719 97.148438 20.066406 C 92.710938 20.289062 90.878906 20.511719 89.75 20.925781 C 89.148438 21.148438 88.558594 21.375 88.449219 21.40625 C 88.289062 21.460938 88.28125 21.492188 88.398438 21.582031 C 89.5 22.339844 92.96875 24.542969 93.699219 24.9375 C 95.820312 26.109375 96.101562 26.144531 100.800781 25.988281 C 102.371094 25.9375 102.988281 25.988281 104.898438 26.402344 C 106.808594 26.816406 108.199219 27.28125 108.078125 27.46875 C 108.058594 27.488281 105.578125 27.296875 102.550781 27.023438 C 99.53125 26.765625 97.050781 26.558594 97.039062 26.574219 C 97.03125 26.59375 96.988281 26.851562 96.949219 27.160156 C 96.890625 27.675781 96.921875 27.746094 97.320312 28.175781 C 97.558594 28.433594 98.160156 29.175781 98.648438 29.8125 C 99.75 31.226562 100.570312 31.949219 101.359375 32.207031 C 101.679688 32.308594 102.988281 32.550781 104.25 32.742188 C 106.058594 33 112.648438 34.257812 114.601562 34.6875 C 114.941406 34.773438 114.921875 34.722656 113.898438 33.035156 C 106.699219 21.203125 96.988281 13.125 87.199219 10.832031 C 85.160156 10.367188 80.46875 10.230469 78.601562 10.59375 Z M 78.601562 10.59375 "/>
<path style=" stroke:none;fill-rule:nonzero;fill:rgb(100%,75.686275%,2.745098%);fill-opacity:1;" d="M 66.75 11.488281 C 66.808594 11.589844 67.800781 12.226562 68.949219 12.917969 C 70.109375 13.605469 71.941406 14.691406 73.03125 15.34375 C 74.109375 15.984375 75 16.464844 75 16.378906 C 75 16.222656 72.988281 14.15625 71.898438 13.210938 C 71.488281 12.867188 70.71875 12.3125 70.199219 12.023438 C 69.390625 11.554688 69.058594 11.46875 67.949219 11.402344 C 67.140625 11.367188 66.691406 11.402344 66.75 11.488281 Z M 66.75 11.488281 "/>
<path style=" stroke:none;fill-rule:nonzero;fill:rgb(100%,75.686275%,2.745098%);fill-opacity:1;" d="M 58.558594 14.363281 L 57.679688 16.015625 L 58.128906 16.929688 C 58.378906 17.429688 58.78125 18.222656 59.03125 18.6875 L 59.480469 19.546875 L 59.898438 18.859375 C 60.398438 18.03125 60.601562 17.414062 60.601562 16.742188 C 60.601562 16.222656 59.960938 13.863281 59.621094 13.125 L 59.441406 12.726562 Z M 58.558594 14.363281 "/>
<path style=" stroke:none;fill-rule:nonzero;fill:rgb(100%,75.686275%,2.745098%);fill-opacity:1;" d="M 65.46875 13.003906 C 64.878906 13.382812 64.480469 13.933594 64.519531 14.328125 C 64.539062 14.605469 64.769531 14.792969 65.570312 15.257812 C 67.808594 16.515625 69.359375 18.152344 73.050781 23.164062 C 75.371094 26.300781 77.929688 28.78125 80.648438 30.484375 C 85.148438 33.324219 87.851562 35.6875 90.910156 39.457031 C 95.609375 45.246094 100.601562 54.148438 104.089844 63.035156 C 106.710938 69.699219 108.398438 75.609375 110 83.597656 C 110.769531 87.492188 111.078125 88.699219 112.558594 93.65625 C 113.25 95.964844 113.800781 97.878906 113.78125 97.910156 C 113.71875 98.015625 112.351562 95.035156 111.769531 93.539062 C 110.78125 91.003906 110.058594 88.335938 109.25 84.203125 C 107.75 76.589844 106.21875 71.214844 103.761719 64.945312 C 99.71875 54.613281 93 43.265625 87.398438 37.339844 C 85.148438 34.960938 83.601562 33.6875 80.898438 32 C 77.441406 29.847656 74.398438 26.886719 71.699219 23.078125 C 69.78125 20.375 68.390625 18.773438 66.191406 16.742188 C 65.179688 15.792969 64.910156 15.707031 63.859375 15.949219 L 63.378906 16.070312 L 63.449219 17.550781 C 63.550781 19.910156 63.839844 20.734375 65.488281 23.40625 C 68.460938 28.195312 69.789062 30.933594 73.820312 40.558594 C 76.589844 47.15625 78.96875 51.976562 82.289062 57.714844 C 85.421875 63.085938 87.550781 66.257812 91.621094 71.59375 C 95.890625 77.210938 96.53125 77.984375 97.570312 78.949219 C 98.769531 80.070312 100.769531 82.203125 101.488281 83.152344 C 102.070312 83.925781 111.398438 97.101562 111.601562 97.445312 C 111.730469 97.671875 111.730469 97.6875 111.601562 97.550781 C 111.519531 97.480469 108.75 94.191406 105.449219 90.265625 C 98.589844 82.101562 94.738281 77.640625 93.789062 76.761719 C 93.429688 76.433594 92.570312 75.4375 91.878906 74.558594 C 91.199219 73.660156 90 72.128906 89.210938 71.164062 C 84.800781 65.617188 80.621094 58.472656 76.011719 48.566406 C 74.609375 45.570312 73.058594 42.058594 70.378906 35.824219 C 69.910156 34.738281 68.949219 32.6875 68.238281 31.277344 C 65.511719 25.867188 65.148438 25.078125 62.808594 19.410156 L 62.320312 18.222656 L 62.25 20.046875 C 62.121094 23.300781 62.328125 24.972656 63.070312 26.730469 C 64.621094 30.3125 65.730469 34.515625 67.300781 42.710938 C 68.378906 48.308594 68.910156 50.652344 69.851562 53.992188 C 71.140625 58.507812 72.761719 62.898438 74.648438 66.960938 C 77.351562 72.730469 81.808594 79.914062 83.78125 81.617188 C 84.109375 81.910156 84.980469 82.722656 85.71875 83.410156 C 87.75 85.339844 92.101562 89.078125 93.710938 90.246094 C 97.148438 92.78125 100.199219 94.535156 104.199219 96.277344 C 105.109375 96.671875 106.390625 97.34375 107.050781 97.738281 C 108.800781 98.824219 112.820312 101.769531 113 102.078125 C 113.128906 102.320312 113.128906 102.339844 112.949219 102.234375 C 111.039062 101.304688 100.289062 95.792969 97.800781 94.46875 C 94.078125 92.488281 93.648438 92.210938 91.351562 90.367188 C 88.578125 88.144531 88.558594 88.144531 86.878906 88.027344 C 85.121094 87.90625 85.03125 87.820312 84.488281 85.925781 C 84.101562 84.5625 82.808594 81.980469 82.53125 81.980469 C 82.339844 81.980469 80.828125 80.535156 79.761719 79.328125 C 79.089844 78.570312 78.679688 77.863281 76.800781 74.144531 C 75.601562 71.765625 74.140625 68.789062 73.539062 67.511719 C 70.398438 60.761719 68.28125 53.546875 66.25 42.625 C 65.828125 40.351562 65.378906 38.027344 65.25 37.460938 C 64.96875 36.238281 61.640625 24.320312 61.480469 23.992188 C 61.421875 23.871094 61.320312 23.765625 61.261719 23.765625 C 61.171875 23.765625 61.179688 24.335938 61.320312 26.039062 C 61.539062 28.847656 61.578125 29.054688 62.359375 31.605469 C 63.671875 35.890625 64.339844 39.027344 66.011719 48.550781 C 67.480469 56.957031 68.050781 59.589844 69.25 63.742188 C 70.410156 67.703125 72.269531 72.664062 74.011719 76.382812 C 74.628906 77.710938 75.199219 79 75.289062 79.242188 C 75.378906 79.484375 75.511719 79.65625 75.570312 79.621094 C 75.640625 79.570312 76.140625 80.242188 76.679688 81.121094 C 78.988281 84.789062 81.601562 87.992188 82.800781 88.613281 C 82.941406 88.679688 83.910156 89.457031 84.949219 90.332031 C 89.601562 94.242188 94.039062 96.742188 100 98.773438 C 102.171875 99.511719 104.421875 100.445312 108.148438 102.113281 C 110.890625 103.355469 114.050781 104.59375 114.21875 104.507812 C 114.269531 104.472656 114.171875 104.144531 114.011719 103.765625 C 113.839844 103.386719 113.699219 103.027344 113.699219 102.957031 C 113.699219 102.90625 113.921875 102.976562 114.191406 103.113281 C 114.609375 103.355469 114.699219 103.355469 114.878906 103.148438 C 115.078125 102.890625 115.078125 102.871094 114.691406 102.046875 C 114.339844 101.253906 114.320312 101.183594 114.511719 101.132812 C 114.808594 101.046875 114.851562 100.648438 114.609375 99.976562 C 114.359375 99.238281 114.351562 99.046875 114.558594 98.789062 C 114.699219 98.601562 114.578125 97.617188 113.449219 89.816406 C 111.191406 74.109375 110.339844 69.5625 108.25 62.261719 C 104.800781 50.1875 100.109375 40.851562 93.949219 33.84375 C 90.449219 29.863281 87.488281 27.402344 83 24.730469 C 80.789062 23.40625 79.53125 22.457031 77.25 20.425781 C 74.199219 17.6875 68.800781 13.539062 67.589844 13.003906 C 66.890625 12.691406 65.980469 12.691406 65.46875 13.003906 Z M 65.46875 13.003906 "/>
<path style=" stroke:none;fill-rule:nonzero;fill:rgb(100%,75.686275%,2.745098%);fill-opacity:1;" d="M 46.75 13.105469 C 37.550781 14.226562 28.511719 19.890625 20.148438 29.761719 C 18.679688 31.5 16.378906 34.460938 16.429688 34.550781 C 16.46875 34.617188 24.191406 34.066406 27.421875 33.773438 C 28.699219 33.652344 29.179688 33.53125 29.519531 33.273438 C 30.101562 32.828125 31.351562 31.070312 32.148438 29.570312 C 33.261719 27.488281 33.671875 27.695312 28.660156 27.761719 C 26.269531 27.796875 24.339844 27.761719 24.378906 27.695312 C 24.421875 27.625 24.71875 27.453125 25.050781 27.316406 C 25.511719 27.125 26.628906 27.039062 29.800781 26.988281 C 34.480469 26.886719 34.480469 26.886719 36.019531 25.558594 C 37.480469 24.320312 40.441406 21.460938 40.339844 21.40625 C 40.261719 21.375 34.261719 20.667969 34 20.667969 C 33.941406 20.667969 33.898438 20.546875 33.898438 20.390625 C 33.898438 20.132812 34.109375 20.117188 36.179688 20.203125 C 37.429688 20.253906 38.679688 20.390625 38.949219 20.496094 C 39.820312 20.824219 41.46875 20.753906 42.359375 20.339844 C 43.121094 19.976562 45.101562 18.480469 45.101562 18.257812 C 45.101562 18.203125 44.28125 18.015625 43.28125 17.84375 C 40.03125 17.273438 40.648438 17.136719 44.910156 17.5 C 46.699219 17.636719 47.28125 17.359375 49.929688 15.121094 C 51.078125 14.140625 52.058594 13.246094 52.121094 13.125 C 52.199219 12.96875 51.789062 12.917969 50.089844 12.933594 C 48.910156 12.953125 47.410156 13.039062 46.75 13.105469 Z M 46.75 13.105469 "/>
<path style=" stroke:none;fill-rule:nonzero;fill:rgb(100%,75.686275%,2.745098%);fill-opacity:1;" d="M 49.398438 16.277344 C 47.960938 16.980469 46.988281 18.03125 42.621094 23.714844 C 37.980469 29.761719 36.890625 31.15625 34.808594 33.738281 C 28.53125 41.507812 24.871094 48.429688 22.300781 57.4375 C 20.128906 65 19.199219 73.214844 19.5 82.1875 C 19.660156 86.992188 19.949219 90.472656 20.988281 99.890625 C 21.699219 106.386719 22.21875 111.707031 22.5 115.566406 C 22.621094 117.132812 22.761719 118.71875 22.820312 119.097656 C 23.078125 120.851562 23.800781 122.367188 24.550781 122.796875 C 24.800781 122.9375 25.230469 122.988281 25.789062 122.917969 C 27.25 122.765625 28.738281 121.679688 29.898438 119.921875 C 32.140625 116.546875 34.628906 113.996094 39.699219 109.882812 C 41.640625 108.296875 42.351562 107.574219 43.398438 106.144531 C 44.601562 104.472656 46.898438 100.667969 48.78125 97.222656 C 49.859375 95.242188 51.308594 92.640625 52 91.453125 C 54.019531 87.972656 54.601562 86.355469 55.53125 81.636719 C 56.691406 75.78125 56.929688 72.285156 57.050781 60.195312 C 57.078125 56.972656 57.171875 52.046875 57.238281 49.257812 C 57.671875 34.238281 57.671875 29.640625 57.238281 25.28125 C 56.820312 21.0625 55.820312 19.101562 53.800781 18.53125 C 53.589844 18.460938 53.238281 18.117188 52.949219 17.722656 C 51.910156 16.222656 50.609375 15.707031 49.398438 16.277344 Z M 47.699219 26.972656 C 47.949219 27.144531 48.351562 27.488281 48.601562 27.761719 C 49.441406 28.640625 49.96875 29.089844 50.460938 29.296875 C 51.660156 29.8125 52.640625 30.964844 53.148438 32.464844 C 53.660156 33.945312 53.730469 35.082031 53.660156 40.558594 C 53.601562 45.761719 53.28125 60.726562 53.101562 66.394531 C 52.941406 71.613281 52.570312 75.796875 51.949219 79.449219 C 51.71875 80.808594 49.820312 87.992188 49.550781 88.523438 C 49.480469 88.664062 49.339844 89.058594 49.25 89.386719 C 48.980469 90.28125 47.921875 92.109375 46.300781 94.449219 C 43.878906 97.945312 43.519531 98.359375 41.5 99.945312 C 36.789062 103.628906 34.179688 106.195312 30.21875 111 C 29.820312 111.5 29.289062 111.929688 28.75 112.222656 C 26.628906 113.359375 25.230469 112 24.558594 108.160156 C 24.28125 106.574219 21.910156 80.929688 21.78125 78.140625 C 21.570312 73.609375 21.929688 68.460938 22.75 64.15625 C 23.230469 61.65625 24.410156 57.542969 25.28125 55.285156 C 27.789062 48.828125 30.46875 44.726562 40 32.828125 C 44.03125 27.796875 44.710938 27.023438 45.460938 26.695312 C 46.011719 26.472656 47.171875 26.609375 47.699219 26.972656 Z M 47.699219 26.972656 "/>
<path style=" stroke:none;fill-rule:nonzero;fill:rgb(100%,75.686275%,2.745098%);fill-opacity:1;" d="M 46.710938 28.691406 C 46.449219 29.054688 46.398438 29.261719 46.398438 29.882812 C 46.398438 30.363281 46.460938 30.742188 46.578125 30.933594 C 46.769531 31.277344 49.199219 34.050781 49.441406 34.203125 C 49.601562 34.308594 50.269531 33.703125 50.480469 33.273438 C 50.539062 33.121094 50.601562 32.621094 50.601562 32.171875 C 50.601562 31.363281 50.578125 31.328125 50.128906 30.8125 C 49.441406 30.070312 47.339844 28.246094 47.171875 28.246094 C 47.078125 28.246094 46.878906 28.453125 46.710938 28.691406 Z M 46.710938 28.691406 "/>
<path style=" stroke:none;fill-rule:nonzero;fill:rgb(100%,75.686275%,2.745098%);fill-opacity:1;" d="M 43.691406 30.226562 C 43.378906 30.414062 42.199219 31.65625 42.199219 31.777344 C 42.199219 31.898438 43.75 33.808594 43.851562 33.824219 C 43.921875 33.824219 44.371094 33.308594 44.859375 32.65625 C 45.839844 31.328125 45.828125 31.464844 44.949219 30.570312 C 44.410156 30.019531 44.121094 29.933594 43.691406 30.226562 Z M 43.691406 30.226562 "/>
<path style=" stroke:none;fill-rule:nonzero;fill:rgb(100%,75.686275%,2.745098%);fill-opacity:1;" d="M 44.910156 33.585938 L 44.46875 33.929688 L 44.710938 34.410156 C 44.839844 34.667969 45.039062 35.167969 45.148438 35.53125 C 45.671875 37.320312 48.171875 39.59375 48.890625 38.941406 C 49.140625 38.699219 49.359375 38.027344 49.449219 37.183594 L 49.511719 36.582031 L 48.679688 35.789062 C 47.25 34.410156 45.808594 33.238281 45.578125 33.238281 C 45.449219 33.238281 45.148438 33.394531 44.910156 33.585938 Z M 44.910156 33.585938 "/>
<path style=" stroke:none;fill-rule:nonzero;fill:rgb(100%,75.686275%,2.745098%);fill-opacity:1;" d="M 40.371094 34.394531 C 40.070312 34.6875 39.871094 35.015625 39.828125 35.273438 C 39.738281 35.890625 40.070312 36.824219 40.519531 37.21875 C 40.96875 37.613281 42.011719 38.0625 42.5 38.0625 C 42.960938 38.0625 43.480469 37.511719 43.558594 36.925781 C 43.648438 36.324219 43.359375 35.359375 42.980469 35.03125 C 42.789062 34.859375 40.851562 33.859375 40.851562 33.929688 C 40.851562 33.929688 40.640625 34.136719 40.371094 34.394531 Z M 40.371094 34.394531 "/>
<path style=" stroke:none;fill-rule:nonzero;fill:rgb(100%,75.686275%,2.745098%);fill-opacity:1;" d="M 50.710938 35.546875 L 50.378906 36.132812 L 50.578125 36.632812 C 50.691406 36.890625 51.191406 37.804688 51.691406 38.664062 L 52.601562 40.214844 L 53 39.441406 C 53.210938 39.007812 53.390625 38.613281 53.398438 38.542969 C 53.398438 38.40625 51.199219 34.960938 51.101562 34.960938 C 51.070312 34.960938 50.890625 35.21875 50.710938 35.546875 Z M 50.710938 35.546875 "/>
<path style=" stroke:none;fill-rule:nonzero;fill:rgb(100%,75.686275%,2.745098%);fill-opacity:1;" d="M 37.621094 38.25 C 37.308594 38.871094 37.101562 39.476562 37.101562 39.714844 C 37.101562 40.816406 38.699219 42.558594 39.839844 42.679688 C 40.449219 42.746094 40.460938 42.746094 40.949219 41.988281 L 41.441406 41.214844 L 39.871094 39.214844 C 39 38.113281 38.261719 37.203125 38.210938 37.203125 C 38.171875 37.203125 37.898438 37.667969 37.621094 38.25 Z M 37.621094 38.25 "/>
<path style=" stroke:none;fill-rule:nonzero;fill:rgb(100%,75.686275%,2.745098%);fill-opacity:1;" d="M 43.878906 38.164062 C 43.511719 38.492188 43.398438 38.90625 43.398438 39.886719 C 43.398438 40.957031 43.628906 41.335938 45.738281 43.574219 L 47.398438 45.332031 L 47.988281 44.710938 C 48.660156 44.003906 48.699219 43.882812 48.699219 42.695312 C 48.699219 42.007812 48.648438 41.765625 48.449219 41.4375 C 48.101562 40.871094 44.671875 37.890625 44.390625 37.890625 C 44.261719 37.90625 44.03125 38.011719 43.878906 38.164062 Z M 43.878906 38.164062 "/>
<path style=" stroke:none;fill-rule:nonzero;fill:rgb(100%,75.686275%,2.745098%);fill-opacity:1;" d="M 49.820312 39.25 C 49.671875 39.40625 49.199219 41.058594 49.199219 41.421875 C 49.199219 41.816406 51.828125 45.46875 52.109375 45.46875 C 52.320312 45.46875 53.039062 44.160156 52.96875 43.882812 C 52.941406 43.761719 52.371094 42.625 51.699219 41.371094 C 50.71875 39.542969 50.429688 39.097656 50.21875 39.097656 C 50.070312 39.097656 49.890625 39.164062 49.820312 39.25 Z M 49.820312 39.25 "/>
<path style=" stroke:none;fill-rule:nonzero;fill:rgb(100%,75.686275%,2.745098%);fill-opacity:1;" d="M 35.230469 42.367188 C 34.929688 42.679688 34.898438 42.78125 34.898438 43.554688 C 34.898438 44.160156 34.960938 44.519531 35.121094 44.867188 C 35.328125 45.332031 36.289062 46.191406 37.859375 47.328125 L 38.558594 47.84375 L 39.109375 47.207031 C 39.628906 46.621094 39.648438 46.554688 39.679688 45.761719 C 39.738281 44.28125 39.5 43.988281 37.300781 42.695312 C 35.988281 41.9375 35.679688 41.886719 35.230469 42.367188 Z M 35.230469 42.367188 "/>
<path style=" stroke:none;fill-rule:nonzero;fill:rgb(100%,75.686275%,2.745098%);fill-opacity:1;" d="M 42.398438 44.039062 C 41.960938 44.332031 41.800781 44.832031 41.800781 45.863281 C 41.800781 46.8125 41.828125 46.933594 42.128906 47.433594 C 42.320312 47.722656 43.25 48.773438 44.199219 49.757812 L 45.941406 51.546875 L 46.460938 51.082031 C 47.230469 50.375 47.351562 50.101562 47.351562 48.878906 C 47.351562 47.898438 47.328125 47.8125 47 47.328125 C 46.808594 47.054688 45.921875 46.207031 45.03125 45.433594 C 43.46875 44.089844 42.808594 43.746094 42.398438 44.039062 Z M 42.398438 44.039062 "/>
<path style=" stroke:none;fill-rule:nonzero;fill:rgb(100%,75.686275%,2.745098%);fill-opacity:1;" d="M 32.011719 45.828125 C 31.238281 46.65625 31.140625 47 31.300781 48.277344 C 31.449219 49.585938 31.710938 50.066406 32.589844 50.753906 C 33.671875 51.597656 35.589844 52.71875 35.980469 52.734375 C 36.429688 52.734375 37.078125 51.960938 37.261719 51.21875 C 37.390625 50.667969 37.390625 50.496094 37.261719 49.703125 C 37.171875 49.207031 37.019531 48.671875 36.929688 48.515625 C 36.699219 48.171875 35.601562 47.277344 33.929688 46.105469 L 32.621094 45.160156 Z M 32.011719 45.828125 "/>
<path style=" stroke:none;fill-rule:nonzero;fill:rgb(100%,75.686275%,2.745098%);fill-opacity:1;" d="M 49.171875 45.96875 C 48.730469 46.449219 48.71875 46.5 48.800781 47.019531 C 48.941406 47.863281 49.269531 48.65625 49.871094 49.601562 C 50.878906 51.203125 51.910156 51.773438 52.21875 50.929688 C 52.429688 50.375 52.601562 49.445312 52.539062 49.207031 C 52.421875 48.722656 49.960938 45.46875 49.710938 45.46875 C 49.671875 45.46875 49.429688 45.691406 49.171875 45.96875 Z M 49.171875 45.96875 "/>
<path style=" stroke:none;fill-rule:nonzero;fill:rgb(100%,75.686275%,2.745098%);fill-opacity:1;" d="M 40.230469 49.894531 C 39.449219 50.824219 39.269531 51.132812 39.371094 51.359375 C 39.429688 51.480469 39.550781 51.976562 39.640625 52.476562 C 39.929688 53.976562 41.21875 55.714844 43.070312 57.109375 C 44.558594 58.230469 45.320312 58.28125 45.949219 57.335938 C 46.691406 56.214844 46.660156 54.871094 45.871094 53.425781 C 44.890625 51.652344 43.621094 50.34375 42.320312 49.757812 C 41.238281 49.292969 40.71875 49.324219 40.230469 49.894531 Z M 40.230469 49.894531 "/>
<path style=" stroke:none;fill-rule:nonzero;fill:rgb(100%,75.686275%,2.745098%);fill-opacity:1;" d="M 29.148438 51.339844 C 28.769531 51.71875 28.390625 52.167969 28.328125 52.324219 C 28.148438 52.71875 28.171875 54.457031 28.371094 55.300781 C 28.519531 55.972656 28.601562 56.078125 29.71875 57.007812 C 30.371094 57.558594 31.621094 58.417969 32.488281 58.917969 L 34.078125 59.832031 L 34.488281 59.503906 C 34.71875 59.332031 35.058594 58.886719 35.25 58.523438 C 35.539062 57.988281 35.601562 57.730469 35.601562 57.109375 C 35.601562 56.25 35.441406 55.335938 35.210938 54.871094 C 35.121094 54.699219 34.648438 54.199219 34.148438 53.785156 C 33.121094 52.890625 30.109375 50.636719 29.949219 50.636719 C 29.898438 50.636719 29.539062 50.960938 29.148438 51.339844 Z M 29.148438 51.339844 "/>
<path style=" stroke:none;fill-rule:nonzero;fill:rgb(100%,75.686275%,2.745098%);fill-opacity:1;" d="M 48.679688 51.117188 C 48.359375 51.425781 48.199219 51.703125 48.199219 51.925781 C 48.210938 53.097656 49.398438 55.507812 50.53125 56.644531 C 51.828125 57.953125 53.121094 57.230469 52.851562 55.320312 C 52.710938 54.339844 49.980469 50.617188 49.398438 50.636719 C 49.261719 50.636719 48.941406 50.859375 48.679688 51.117188 Z M 48.679688 51.117188 "/>
<path style=" stroke:none;fill-rule:nonzero;fill:rgb(100%,75.686275%,2.745098%);fill-opacity:1;" d="M 37.148438 55.785156 C 36.480469 56.578125 36.300781 58.265625 36.738281 59.847656 C 37.128906 61.261719 37.289062 61.46875 40.828125 64.742188 C 41.871094 65.6875 42.761719 66.480469 42.808594 66.480469 C 43.03125 66.480469 44.28125 64.878906 44.390625 64.449219 C 44.578125 63.742188 44.640625 62.449219 44.5 61.761719 C 44.359375 61.003906 43.328125 59.195312 42.519531 58.265625 C 41.210938 56.785156 39.46875 55.679688 38.148438 55.527344 C 37.558594 55.441406 37.398438 55.492188 37.148438 55.785156 Z M 37.148438 55.785156 "/>
<path style=" stroke:none;fill-rule:nonzero;fill:rgb(100%,75.686275%,2.745098%);fill-opacity:1;" d="M 47.679688 56.59375 C 47.191406 57.042969 46.929688 58.332031 47.101562 59.417969 C 47.238281 60.332031 48.351562 62.226562 49.539062 63.570312 C 51.050781 65.292969 51.890625 65.5 52.570312 64.328125 C 52.851562 63.84375 52.898438 63.636719 52.898438 62.949219 C 52.898438 62.226562 52.851562 62.070312 52.378906 61.191406 C 51.25 59.144531 48.859375 56.320312 48.261719 56.320312 C 48.089844 56.335938 47.828125 56.4375 47.679688 56.59375 Z M 47.679688 56.59375 "/>
<path style=" stroke:none;fill-rule:nonzero;fill:rgb(100%,75.686275%,2.745098%);fill-opacity:1;" d="M 26.320312 57.628906 C 25.191406 58.59375 24.839844 60.539062 25.46875 62.382812 C 25.929688 63.757812 27.898438 65.808594 29.820312 66.910156 C 31.460938 67.839844 32.429688 67.703125 33.050781 66.445312 C 33.261719 66.015625 33.300781 65.757812 33.300781 64.878906 C 33.300781 63.414062 33.148438 62.621094 32.769531 62.070312 C 32.390625 61.519531 27.300781 57.179688 27.03125 57.179688 C 26.921875 57.179688 26.601562 57.386719 26.320312 57.628906 Z M 26.320312 57.628906 "/>
<path style=" stroke:none;fill-rule:nonzero;fill:rgb(100%,75.686275%,2.745098%);fill-opacity:1;" d="M 35.449219 63.363281 C 34.550781 64.34375 34.449219 64.601562 34.460938 65.859375 C 34.460938 67.445312 34.621094 67.804688 35.921875 69.183594 C 38.269531 71.699219 40.328125 73.542969 40.769531 73.542969 C 41.179688 73.542969 41.898438 72.871094 42.101562 72.285156 C 42.351562 71.59375 42.449219 70.164062 42.308594 69.289062 C 42.121094 68.117188 40.820312 66.238281 39.25 64.894531 C 38.699219 64.414062 36.199219 62.691406 36.078125 62.691406 C 36.058594 62.691406 35.78125 62.984375 35.449219 63.363281 Z M 35.449219 63.363281 "/>
<path style=" stroke:none;fill-rule:nonzero;fill:rgb(100%,75.686275%,2.745098%);fill-opacity:1;" d="M 45.941406 62.863281 C 45.828125 62.933594 45.601562 63.277344 45.429688 63.621094 C 45.019531 64.414062 44.910156 65.515625 45.140625 66.550781 C 45.46875 68.046875 47.910156 71.492188 49.539062 72.785156 C 51.101562 74.007812 52.640625 72.492188 52.191406 70.148438 C 51.488281 66.410156 47.511719 61.761719 45.941406 62.863281 Z M 45.941406 62.863281 "/>
<path style=" stroke:none;fill-rule:nonzero;fill:rgb(100%,75.686275%,2.745098%);fill-opacity:1;" d="M 24.449219 65.585938 C 23.449219 66.6875 23.390625 68.097656 24.269531 70.097656 C 25.339844 72.558594 27.230469 74.472656 29.46875 75.367188 C 30.070312 75.609375 30.140625 75.609375 30.480469 75.316406 C 31.261719 74.660156 31.570312 72.992188 31.191406 71.492188 C 30.75 69.734375 28.800781 67.117188 27.050781 65.929688 C 26.011719 65.238281 24.898438 65.085938 24.449219 65.585938 Z M 24.449219 65.585938 "/>
<path style=" stroke:none;fill-rule:nonzero;fill:rgb(100%,75.686275%,2.745098%);fill-opacity:1;" d="M 44.101562 70.457031 C 43.328125 70.992188 42.808594 72.800781 43.019531 74.214844 C 43.089844 74.710938 43.378906 75.332031 44.179688 76.761719 C 45.699219 79.433594 46.730469 80.621094 48.050781 81.222656 C 49 81.671875 49.828125 81.445312 50.421875 80.601562 C 50.710938 80.1875 50.738281 80.035156 50.78125 78.984375 C 50.808594 78.296875 50.769531 77.640625 50.699219 77.332031 C 50.558594 76.746094 48.878906 74.472656 47.101562 72.472656 C 45.160156 70.285156 44.75 70.011719 44.101562 70.457031 Z M 44.101562 70.457031 "/>
<path style=" stroke:none;fill-rule:nonzero;fill:rgb(100%,75.686275%,2.745098%);fill-opacity:1;" d="M 33.191406 71.027344 C 32.820312 71.457031 32.5 72.507812 32.5 73.25 C 32.511719 73.851562 32.839844 74.9375 33.289062 75.816406 C 34.210938 77.589844 35.539062 78.933594 37.699219 80.257812 L 38.828125 80.964844 L 39.390625 80.292969 C 39.699219 79.914062 40.03125 79.363281 40.121094 79.035156 C 40.328125 78.363281 40.351562 76.917969 40.171875 76.347656 C 39.949219 75.660156 36.851562 72.457031 35.289062 71.320312 C 34.160156 70.492188 33.710938 70.425781 33.191406 71.027344 Z M 33.191406 71.027344 "/>
<path style=" stroke:none;fill-rule:nonzero;fill:rgb(100%,75.686275%,2.745098%);fill-opacity:1;" d="M 23.25 73.335938 L 22.558594 73.628906 L 22.589844 74.574219 C 22.621094 75.832031 22.769531 76.917969 22.96875 77.449219 C 23.269531 78.242188 24.519531 79.898438 25.390625 80.671875 C 26.289062 81.464844 27.261719 82.050781 28.011719 82.238281 L 28.449219 82.34375 L 28.769531 81.429688 C 29.398438 79.636719 29.46875 78.535156 29.039062 77.433594 C 28.738281 76.675781 27.441406 75.175781 26.03125 73.9375 C 24.941406 72.992188 24.351562 72.871094 23.25 73.335938 Z M 23.25 73.335938 "/>
<path style=" stroke:none;fill-rule:nonzero;fill:rgb(100%,75.686275%,2.745098%);fill-opacity:1;" d="M 32.058594 78.261719 C 30.679688 79.140625 30.621094 81.566406 31.929688 83.652344 C 32.558594 84.667969 32.75 84.839844 33.851562 85.492188 C 34.398438 85.804688 35.390625 86.40625 36.050781 86.820312 C 36.710938 87.234375 37.328125 87.507812 37.421875 87.457031 C 37.640625 87.300781 38.199219 85.304688 38.269531 84.425781 C 38.308594 83.890625 38.28125 83.617188 38.109375 83.203125 C 37.730469 82.289062 33.609375 78.347656 32.800781 78.121094 C 32.601562 78.070312 32.28125 78.121094 32.058594 78.261719 Z M 32.058594 78.261719 "/>
<path style=" stroke:none;fill-rule:nonzero;fill:rgb(100%,75.686275%,2.745098%);fill-opacity:1;" d="M 42.390625 78.535156 C 41.058594 78.933594 40.660156 80.035156 41.058594 82.308594 C 41.28125 83.617188 41.808594 84.53125 43.390625 86.320312 C 43.808594 86.820312 44.449219 86.71875 45.289062 86.027344 C 45.691406 85.699219 46.078125 85.425781 46.148438 85.425781 C 46.410156 85.425781 46.570312 84.941406 46.691406 83.71875 L 46.820312 82.480469 L 46.441406 81.703125 C 45.988281 80.742188 45.46875 80.070312 44.601562 79.3125 C 44.089844 78.863281 42.980469 78.277344 42.871094 78.382812 C 42.859375 78.398438 42.640625 78.46875 42.390625 78.535156 Z M 42.390625 78.535156 "/>
<path style=" stroke:none;fill-rule:nonzero;fill:rgb(100%,75.686275%,2.745098%);fill-opacity:1;" d="M 23.199219 81.085938 C 22.71875 81.5 22.628906 82.015625 22.839844 83.273438 C 22.96875 84.03125 23.140625 84.496094 23.550781 85.234375 L 24.078125 86.199219 L 23.691406 86.976562 C 22.878906 88.578125 23.101562 89.574219 24.769531 91.882812 C 25.980469 93.539062 25.960938 93.539062 26.570312 92.160156 C 27.25 90.644531 27.679688 86.769531 27.398438 84.753906 C 27.289062 83.925781 27.230469 83.789062 26.558594 82.996094 C 25.539062 81.757812 24.378906 80.773438 23.929688 80.773438 C 23.71875 80.773438 23.390625 80.914062 23.199219 81.085938 Z M 23.199219 81.085938 "/>
<path style=" stroke:none;fill-rule:nonzero;fill:rgb(100%,75.686275%,2.745098%);fill-opacity:1;" d="M 31.058594 85.699219 C 30.179688 86.304688 30.101562 86.476562 30.109375 87.820312 C 30.109375 89.523438 30.261719 90.058594 30.898438 90.796875 C 31.71875 91.761719 35.011719 94.605469 35.101562 94.433594 C 35.230469 94.226562 35.5 91.746094 35.5 90.851562 C 35.5 90.417969 35.429688 89.78125 35.351562 89.421875 C 34.859375 87.421875 33.710938 86.855469 31.980469 87.765625 C 31.820312 87.855469 31.800781 87.714844 31.800781 86.5625 C 31.800781 85.839844 31.769531 85.253906 31.730469 85.269531 C 31.679688 85.269531 31.378906 85.460938 31.058594 85.699219 Z M 31.058594 85.699219 "/>
<path style=" stroke:none;fill-rule:nonzero;fill:rgb(100%,75.686275%,2.745098%);fill-opacity:1;" d="M 39.261719 86.390625 C 38.878906 87.25 38.738281 88.078125 38.851562 88.816406 C 39.011719 89.9375 40.488281 91.730469 42.628906 93.398438 C 44.429688 94.8125 45.5 94.726562 46.050781 93.089844 C 46.359375 92.210938 46.371094 91.265625 46.101562 90.488281 C 45.660156 89.265625 43.789062 86.921875 43.570312 87.300781 C 43.269531 87.820312 41.019531 86.941406 40.019531 85.925781 C 39.839844 85.753906 39.671875 85.597656 39.648438 85.597656 C 39.628906 85.597656 39.449219 85.960938 39.261719 86.390625 Z M 39.261719 86.390625 "/>
<path style=" stroke:none;fill-rule:nonzero;fill:rgb(100%,75.686275%,2.745098%);fill-opacity:1;" d="M 29.800781 91.660156 C 29.828125 93.3125 30.03125 96.394531 30.140625 96.859375 C 30.421875 98.03125 31.011719 98.082031 32.128906 97.066406 C 32.898438 96.378906 33.699219 95.378906 33.660156 95.171875 C 33.640625 95 30.019531 91.46875 29.878906 91.453125 C 29.828125 91.453125 29.800781 91.554688 29.800781 91.660156 Z M 29.800781 91.660156 "/>
<path style=" stroke:none;fill-rule:nonzero;fill:rgb(100%,75.686275%,2.745098%);fill-opacity:1;" d="M 36.25 96.378906 C 35.839844 96.621094 34.488281 98.289062 34.429688 98.617188 C 34.410156 98.703125 35.339844 99.324219 36.488281 99.960938 C 38.761719 101.253906 38.871094 101.269531 39.421875 100.425781 L 39.75 99.925781 L 39.621094 99.082031 C 39.449219 98.015625 39.121094 97.429688 38.261719 96.707031 C 37.5 96.035156 36.949219 95.949219 36.25 96.378906 Z M 36.25 96.378906 "/>
<path style=" stroke:none;fill-rule:nonzero;fill:rgb(100%,75.686275%,2.745098%);fill-opacity:1;" d="M 27.851562 98.101562 C 27.480469 98.429688 27.398438 98.636719 27.398438 99.339844 C 27.398438 100.667969 27.738281 101.21875 29.839844 103.285156 C 30.710938 104.128906 30.761719 104.144531 31 103.90625 C 31.570312 103.300781 31.800781 102.785156 31.800781 102.078125 C 31.800781 101.71875 31.761719 101.289062 31.699219 101.113281 C 31.648438 100.941406 31.210938 100.339844 30.730469 99.773438 C 29.121094 97.859375 28.5 97.515625 27.851562 98.101562 Z M 27.851562 98.101562 "/>
<path style=" stroke:none;fill-rule:nonzero;fill:rgb(100%,75.686275%,2.745098%);fill-opacity:1;" d="M 33.140625 100.632812 L 32.660156 101.390625 L 34.011719 102.957031 L 35.359375 104.507812 L 35.980469 103.527344 C 36.578125 102.578125 36.589844 102.527344 36.5 101.960938 C 36.289062 100.683594 35.761719 100.183594 34.378906 99.976562 L 33.609375 99.859375 Z M 33.140625 100.632812 "/>
<path style=" stroke:none;fill-rule:nonzero;fill:rgb(100%,75.686275%,2.745098%);fill-opacity:1;" d="M 26.289062 103.40625 C 26.160156 103.527344 25.921875 103.765625 25.75 103.941406 C 25.589844 104.113281 25.441406 104.285156 25.421875 104.285156 C 25.410156 104.300781 25.488281 104.679688 25.601562 105.128906 C 25.839844 106.039062 26.039062 106.300781 27.761719 107.847656 C 29.050781 109.019531 29.371094 109.089844 29.808594 108.347656 C 30.191406 107.695312 30.210938 106.765625 29.859375 106.214844 C 29.640625 105.851562 27.339844 103.714844 26.789062 103.355469 C 26.601562 103.234375 26.460938 103.25 26.289062 103.40625 Z M 26.289062 103.40625 "/>
<path style=" stroke:none;fill-rule:nonzero;fill:rgb(100%,75.686275%,2.745098%);fill-opacity:1;" d="M 79.660156 20.753906 C 80.910156 22.304688 82.601562 23.492188 84.46875 24.179688 C 85.53125 24.558594 85.910156 24.816406 88.101562 26.609375 C 89.449219 27.710938 90.980469 29.003906 91.5 29.484375 C 97.769531 35.253906 102.570312 42.679688 106.339844 52.445312 C 107.558594 55.59375 108.339844 57.953125 109.421875 61.761719 C 110.261719 64.742188 110.691406 65.929688 110.558594 64.914062 C 110.53125 64.6875 110.410156 63.792969 110.308594 62.949219 C 109.679688 58.007812 108.28125 52.425781 106.519531 47.878906 C 105.359375 44.882812 104.53125 43.125 103.050781 40.492188 C 98.679688 32.722656 92.851562 27.109375 86.671875 24.730469 C 85.878906 24.421875 84.480469 23.59375 82.378906 22.21875 C 80.660156 21.082031 79.238281 20.152344 79.210938 20.152344 C 79.191406 20.152344 79.390625 20.425781 79.660156 20.753906 Z M 79.660156 20.753906 "/>
<path style=" stroke:none;fill-rule:nonzero;fill:rgb(100%,75.686275%,2.745098%);fill-opacity:1;" d="M 59.621094 28.675781 C 57.601562 42.902344 57.640625 56.664062 59.75 71.285156 C 60.601562 77.160156 61.820312 83.289062 63.238281 88.871094 C 63.691406 90.625 63.789062 90.9375 63.839844 90.59375 C 63.878906 90.351562 64.398438 85.820312 65.011719 80.515625 C 65.820312 73.488281 66.128906 70.492188 66.140625 69.460938 C 66.148438 68.066406 66.148438 68.046875 65.53125 65.929688 C 65.179688 64.773438 64.671875 63.277344 64.390625 62.605469 C 63.949219 61.605469 63.859375 61.46875 63.800781 61.742188 C 63.769531 61.933594 63.308594 65.207031 62.800781 69.011719 C 62.28125 72.835938 61.820312 75.953125 61.78125 75.953125 C 61.738281 75.953125 61.699219 75.503906 61.699219 74.953125 C 61.699219 73.972656 61.890625 72.371094 62.960938 64.585938 C 63.730469 58.917969 63.738281 58.351562 63.019531 53.734375 C 62.738281 51.890625 62.398438 49.722656 62.269531 48.914062 L 62.03125 47.449219 L 61.921875 48.050781 C 61.71875 49.136719 60.191406 57.609375 60.140625 57.902344 C 60.089844 58.214844 59.800781 58.351562 59.800781 58.058594 C 59.800781 57.835938 60.558594 52.753906 60.730469 51.839844 C 60.808594 51.410156 61.039062 50.34375 61.25 49.445312 C 61.660156 47.605469 61.898438 45.742188 61.898438 44.261719 C 61.898438 43.195312 61.691406 40.871094 61.46875 39.613281 L 61.339844 38.855469 L 60.648438 42.160156 C 60.261719 43.96875 59.921875 45.46875 59.890625 45.46875 C 59.769531 45.46875 60.28125 42.144531 60.550781 41.078125 C 61 39.355469 61.199219 37.683594 61.199219 35.6875 C 61.199219 34.171875 61.128906 33.308594 60.738281 30.328125 C 60.058594 25.109375 60.121094 25.179688 59.621094 28.675781 Z M 59.621094 28.675781 "/>
<path style=" stroke:none;fill-rule:nonzero;fill:rgb(100%,75.686275%,2.745098%);fill-opacity:1;" d="M 101.5 33.308594 C 101.5 33.601562 102.808594 36.152344 103.371094 36.941406 C 104.101562 37.992188 105.351562 39.097656 106.148438 39.441406 C 106.429688 39.542969 107.328125 39.714844 108.148438 39.785156 C 110.308594 40.007812 114.371094 41.351562 114.078125 41.75 C 114.070312 41.78125 112.5 41.4375 110.601562 40.972656 C 106.101562 39.90625 106.511719 39.941406 106.351562 40.558594 L 106.230469 41.09375 L 108.441406 43.089844 C 111.921875 46.242188 113.179688 47.085938 117.191406 48.914062 C 119.769531 50.101562 119.820312 50.136719 119.71875 50.410156 C 119.660156 50.566406 118.839844 50.203125 116.550781 49 C 113.699219 47.5 113.441406 47.378906 113.328125 47.65625 C 113.261719 47.8125 113.199219 47.984375 113.199219 48.035156 C 113.199219 48.121094 121.5 58.796875 121.941406 59.28125 C 122.019531 59.367188 122 59.488281 121.898438 59.644531 C 121.769531 59.847656 121.109375 59.089844 116.800781 53.71875 L 111.851562 47.550781 L 111.628906 48.015625 C 111.5 48.277344 111.398438 48.515625 111.398438 48.566406 C 111.398438 48.621094 112.269531 50.789062 113.339844 53.390625 C 114.410156 55.992188 115.269531 58.144531 115.25 58.195312 C 115.160156 58.332031 114.171875 56.921875 113.550781 55.765625 C 113.191406 55.097656 112.359375 53.183594 111.710938 51.511719 C 110.070312 47.34375 109.328125 45.917969 108.148438 44.691406 C 107.820312 44.367188 107.53125 44.089844 107.488281 44.089844 C 107.449219 44.089844 107.839844 45.503906 108.359375 47.226562 C 108.890625 48.964844 109.890625 52.390625 110.601562 54.871094 C 111.429688 57.75 112.011719 59.554688 112.21875 59.917969 C 112.589844 60.554688 112.75 60.640625 116 62.003906 C 118.769531 63.15625 120.871094 64.292969 121.929688 65.207031 C 123.789062 66.808594 125.578125 69.460938 126.75 72.320312 C 127.320312 73.714844 127.738281 74.402344 127.878906 74.160156 C 128.019531 73.902344 128.011719 71.335938 127.859375 69.597656 C 127.359375 63.929688 124.761719 54.855469 121.398438 47.105469 C 119.269531 42.179688 116.609375 37.097656 115.878906 36.597656 C 115.210938 36.132812 112.78125 35.1875 111.101562 34.722656 C 109.179688 34.1875 107.261719 33.824219 105.050781 33.601562 C 104.121094 33.5 102.929688 33.378906 102.429688 33.324219 C 101.921875 33.257812 101.5 33.257812 101.5 33.308594 Z M 101.5 33.308594 "/>
<path style=" stroke:none;fill-rule:nonzero;fill:rgb(100%,75.686275%,2.745098%);fill-opacity:1;" d="M 24.601562 34.789062 C 23.691406 34.859375 22.160156 34.929688 21.199219 34.945312 C 19.109375 34.960938 17.808594 35.273438 16.488281 36.046875 C 14.5 37.21875 13.109375 38.992188 10.949219 43.039062 C 6.390625 51.617188 3.921875 57.371094 2.21875 63.433594 C 1.359375 66.480469 0.929688 68.5625 0.449219 72.164062 L 0.0117188 75.351562 L 0.230469 75.644531 C 0.441406 75.933594 0.460938 75.933594 0.648438 75.539062 C 0.761719 75.316406 1.148438 74.507812 1.519531 73.75 C 2.261719 72.234375 3.679688 70.097656 4.730469 68.925781 C 6.390625 67.082031 8.941406 65.359375 11.25 64.535156 C 13.011719 63.898438 14.308594 63.585938 17.019531 63.207031 C 18.460938 63 19.621094 62.742188 19.871094 62.585938 C 20.429688 62.242188 20.601562 61.570312 20.671875 59.46875 C 20.738281 57.644531 20.761719 57.695312 20.128906 58.523438 C 19.949219 58.746094 19.800781 58.902344 19.800781 58.851562 C 19.800781 58.796875 20.660156 56.027344 21.710938 52.703125 C 23.421875 47.292969 23.609375 46.621094 23.46875 46.382812 C 23.378906 46.207031 23.238281 46.15625 23.109375 46.242188 C 22.679688 46.46875 20.941406 49.566406 19.621094 52.445312 C 18.039062 55.855469 16.730469 58.179688 15.761719 59.296875 C 15.371094 59.746094 15.039062 60.074219 15.019531 60.039062 C 15 59.988281 18.53125 52.617188 19.878906 49.894531 C 20.019531 49.617188 20.019531 49.566406 19.878906 49.324219 C 19.75 49.085938 19.128906 49.636719 13.949219 54.597656 C 10.769531 57.628906 8.121094 60.089844 8.058594 60.054688 C 7.941406 59.988281 7.839844 60.089844 13.671875 54.355469 L 18.179688 49.910156 L 18.03125 49.292969 C 17.949219 48.929688 17.851562 48.601562 17.820312 48.535156 C 17.78125 48.480469 16.199219 49 14.300781 49.6875 C 12.398438 50.375 10.828125 50.910156 10.808594 50.875 C 10.699219 50.703125 12 49.929688 13.351562 49.378906 C 15.101562 48.65625 16.160156 48.308594 17.550781 48.050781 C 19.25 47.707031 20.621094 46.914062 23 44.847656 C 24.050781 43.953125 24.570312 43.382812 24.890625 42.816406 L 25.328125 42.039062 L 25.039062 41.902344 C 24.878906 41.835938 23.628906 41.78125 22.25 41.765625 C 19.570312 41.765625 18.539062 41.953125 16.609375 42.816406 C 15.730469 43.210938 15.441406 43.246094 15.660156 42.902344 C 15.789062 42.695312 17.910156 41.730469 18.949219 41.421875 C 19.53125 41.230469 20.789062 41.09375 22.511719 41.007812 L 25.171875 40.902344 L 25.761719 40.371094 C 26.210938 39.972656 26.460938 39.59375 26.828125 38.75 C 27.089844 38.132812 27.589844 37.082031 27.929688 36.425781 C 28.96875 34.410156 29.011719 34.617188 27.539062 34.652344 C 26.828125 34.667969 25.511719 34.738281 24.601562 34.789062 Z M 24.601562 34.789062 "/>
<path style=" stroke:none;fill-rule:nonzero;fill:rgb(100%,75.686275%,2.745098%);fill-opacity:1;" d="M 69.339844 68.511719 C 69.261719 68.597656 70.011719 70.71875 71.550781 74.816406 L 73.878906 81.015625 L 75.21875 82.996094 C 75.960938 84.097656 77.460938 86.304688 78.539062 87.921875 C 79.621094 89.523438 80.769531 91.144531 81.078125 91.503906 C 81.96875 92.539062 85.5 95.464844 87.101562 96.515625 C 91.230469 99.203125 96.039062 101.046875 102 102.199219 C 104.308594 102.664062 107.71875 103.164062 107.808594 103.0625 C 107.929688 102.941406 107.921875 102.132812 107.800781 102.132812 C 107.75 102.132812 106.679688 101.820312 105.429688 101.441406 C 104.179688 101.082031 102.179688 100.53125 101 100.238281 C 94.679688 98.6875 89.910156 96.1875 84.25 91.488281 C 81.941406 89.558594 81.160156 88.699219 77.800781 84.238281 C 74.929688 80.449219 74.761719 80.136719 72.089844 73.988281 C 70.75 70.90625 69.609375 68.375 69.550781 68.375 C 69.5 68.375 69.398438 68.445312 69.339844 68.511719 Z M 69.339844 68.511719 "/>
<path style=" stroke:none;fill-rule:nonzero;fill:rgb(100%,75.686275%,2.745098%);fill-opacity:1;" d="M 66.660156 70.492188 C 66.628906 70.71875 66.359375 72.957031 66.058594 75.453125 C 65.761719 77.949219 65.320312 81.429688 65.089844 83.1875 C 64.671875 86.25 64.660156 86.476562 64.660156 89.300781 C 64.648438 91.988281 64.679688 92.367188 64.929688 93.949219 C 65.308594 96.308594 65.980469 98.636719 67.171875 101.71875 C 69.789062 108.488281 72.058594 113.566406 74.148438 117.253906 C 76.550781 121.523438 78.46875 124.023438 81.179688 126.382812 L 82.960938 127.949219 L 83.179688 127.585938 L 83.390625 127.226562 L 83 126.433594 C 81.578125 123.46875 80.398438 119.234375 79.898438 115.273438 C 79.550781 112.414062 79.46875 110.570312 79.53125 106.386719 C 79.589844 102.476562 79.710938 100.445312 80.179688 95.5 C 80.511719 92.074219 80.519531 91.882812 80.359375 91.230469 C 80.179688 90.453125 79.890625 90.144531 78.929688 89.628906 C 77.878906 89.078125 77.871094 89.078125 78.109375 90.007812 C 78.230469 90.4375 78.300781 90.816406 78.28125 90.851562 C 78.25 90.902344 77.511719 89.765625 73.730469 83.839844 C 72.429688 81.808594 72.289062 81.636719 72.109375 81.84375 C 71.871094 82.101562 71.890625 82.257812 72.320312 83.859375 C 72.710938 85.253906 73.460938 87.164062 74.75 89.988281 C 76.011719 92.746094 76.671875 94.433594 77.148438 96.070312 C 77.550781 97.464844 77.929688 99.203125 77.820312 99.1875 C 77.78125 99.1875 76.71875 96.757812 75.449219 93.796875 C 73.679688 89.644531 73.109375 88.421875 72.980469 88.492188 C 72.878906 88.523438 72.800781 88.664062 72.800781 88.800781 C 72.800781 88.921875 73.589844 93.933594 74.539062 99.925781 C 75.5 105.921875 76.269531 110.847656 76.238281 110.898438 C 76.21875 110.933594 76.179688 110.933594 76.148438 110.878906 C 76.109375 110.828125 74.898438 103.699219 73.039062 92.519531 C 72.898438 91.730469 72.859375 91.625 72.621094 91.625 C 72.46875 91.625 72.25 91.675781 72.140625 91.730469 C 71.929688 91.816406 71.921875 91.933594 71.859375 96.15625 C 71.828125 98.550781 71.769531 101.304688 71.730469 102.304688 L 71.660156 104.113281 L 71.53125 103.164062 C 71.351562 101.90625 71.421875 95.140625 71.648438 92.140625 C 71.890625 89.058594 71.789062 87.128906 71.128906 82.152344 C 70.871094 80.207031 70.691406 79.242188 70.460938 78.585938 C 70.289062 78.089844 70.128906 77.675781 70.101562 77.675781 C 70.019531 77.675781 69.320312 81.757812 69.050781 83.804688 C 68.679688 86.5625 68.5 89.28125 68.5 91.902344 C 68.5 93.210938 68.460938 94.207031 68.410156 94.207031 C 68.101562 94.207031 68.160156 87.972656 68.5 84.996094 C 68.621094 83.945312 68.851562 82.171875 69.019531 81.035156 C 69.550781 77.433594 69.429688 75.96875 68.46875 74.09375 C 68.210938 73.59375 67.730469 72.492188 67.398438 71.648438 C 67.070312 70.785156 66.78125 70.097656 66.761719 70.097656 C 66.738281 70.097656 66.699219 70.285156 66.660156 70.492188 Z M 66.660156 70.492188 "/>
</g>
</svg>
