<?xml version="1.0" encoding="UTF-8"?>
<svg xmlns="http://www.w3.org/2000/svg" xmlns:xlink="http://www.w3.org/1999/xlink" width="153px" height="128px" viewBox="0 0 153 128" version="1.1">
<g id="surface1">
<path style=" stroke:none;fill-rule:nonzero;fill:rgb(4.313725%,23.921569%,56.862745%);fill-opacity:1;" d="M 125.445312 62.609375 C 125.445312 93.453125 100.449219 118.457031 69.613281 118.457031 C 38.777344 118.457031 13.78125 93.453125 13.78125 62.609375 C 13.78125 31.765625 38.777344 6.761719 69.613281 6.761719 C 100.449219 6.761719 125.445312 31.765625 125.445312 62.609375 Z M 125.445312 62.609375 "/>
<path style=" stroke:none;fill-rule:nonzero;fill:rgb(100%,100%,100%);fill-opacity:1;" d="M 66.941406 17.488281 C 66.941406 17.835938 66.664062 18.113281 66.316406 18.113281 C 65.972656 18.113281 65.691406 17.835938 65.691406 17.488281 C 65.691406 17.144531 65.972656 16.863281 66.316406 16.863281 C 66.664062 16.863281 66.941406 17.144531 66.941406 17.488281 Z M 66.941406 17.488281 "/>
<path style=" stroke:none;fill-rule:nonzero;fill:rgb(100%,100%,100%);fill-opacity:1;" d="M 73.367188 18.324219 C 73.367188 18.667969 73.089844 18.949219 72.742188 18.949219 C 72.398438 18.949219 72.117188 18.667969 72.117188 18.324219 C 72.117188 17.976562 72.398438 17.699219 72.742188 17.699219 C 73.089844 17.699219 73.367188 17.976562 73.367188 18.324219 Z M 73.367188 18.324219 "/>
<path style=" stroke:none;fill-rule:nonzero;fill:rgb(100%,100%,100%);fill-opacity:1;" d="M 81.796875 29.675781 C 81.796875 30.023438 81.519531 30.300781 81.171875 30.300781 C 80.828125 30.300781 80.546875 30.023438 80.546875 29.675781 C 80.546875 29.332031 80.828125 29.050781 81.171875 29.050781 C 81.519531 29.050781 81.796875 29.332031 81.796875 29.675781 Z M 81.796875 29.675781 "/>
<path style=" stroke:none;fill-rule:nonzero;fill:rgb(100%,100%,100%);fill-opacity:1;" d="M 35.5625 88.109375 C 35.5625 88.457031 35.285156 88.738281 34.9375 88.738281 C 34.59375 88.738281 34.3125 88.457031 34.3125 88.109375 C 34.3125 87.765625 34.59375 87.484375 34.9375 87.484375 C 35.285156 87.484375 35.5625 87.765625 35.5625 88.109375 Z M 35.5625 88.109375 "/>
<path style=" stroke:none;fill-rule:nonzero;fill:rgb(100%,100%,100%);fill-opacity:1;" d="M 37.191406 93.121094 C 37.191406 93.464844 36.910156 93.746094 36.566406 93.746094 C 36.21875 93.746094 35.941406 93.464844 35.941406 93.121094 C 35.941406 92.773438 36.21875 92.492188 36.566406 92.492188 C 36.910156 92.492188 37.191406 92.773438 37.191406 93.121094 Z M 37.191406 93.121094 "/>
<path style=" stroke:none;fill-rule:nonzero;fill:rgb(100%,100%,100%);fill-opacity:1;" d="M 29.273438 88.863281 C 29.273438 89.121094 29.0625 89.332031 28.804688 89.332031 C 28.546875 89.332031 28.335938 89.121094 28.335938 88.863281 C 28.335938 88.605469 28.546875 88.394531 28.804688 88.394531 C 29.0625 88.394531 29.273438 88.605469 29.273438 88.863281 Z M 29.273438 88.863281 "/>
<path style=" stroke:none;fill-rule:nonzero;fill:rgb(100%,100%,100%);fill-opacity:1;" d="M 54.726562 98.703125 C 54.726562 98.960938 54.519531 99.171875 54.257812 99.171875 C 54 99.171875 53.789062 98.960938 53.789062 98.703125 C 53.789062 98.441406 54 98.230469 54.257812 98.230469 C 54.519531 98.230469 54.726562 98.441406 54.726562 98.703125 Z M 54.726562 98.703125 "/>
<path style=" stroke:none;fill-rule:nonzero;fill:rgb(100%,100%,100%);fill-opacity:1;" d="M 94.648438 90.40625 C 94.648438 90.664062 94.4375 90.875 94.179688 90.875 C 93.921875 90.875 93.710938 90.664062 93.710938 90.40625 C 93.710938 90.148438 93.921875 89.9375 94.179688 89.9375 C 94.4375 89.9375 94.648438 90.148438 94.648438 90.40625 Z M 94.648438 90.40625 "/>
<path style=" stroke:none;fill-rule:nonzero;fill:rgb(100%,100%,100%);fill-opacity:1;" d="M 106.25 77.800781 C 106.25 78.0625 106.042969 78.273438 105.78125 78.273438 C 105.523438 78.273438 105.3125 78.0625 105.3125 77.800781 C 105.3125 77.542969 105.523438 77.332031 105.78125 77.332031 C 106.042969 77.332031 106.25 77.542969 106.25 77.800781 Z M 106.25 77.800781 "/>
<path style=" stroke:none;fill-rule:nonzero;fill:rgb(100%,100%,100%);fill-opacity:1;" d="M 49.386719 33.339844 C 49.386719 33.597656 49.175781 33.808594 48.917969 33.808594 C 48.65625 33.808594 48.449219 33.597656 48.449219 33.339844 C 48.449219 33.078125 48.65625 32.871094 48.917969 32.871094 C 49.175781 32.871094 49.386719 33.078125 49.386719 33.339844 Z M 49.386719 33.339844 "/>
<path style=" stroke:none;fill-rule:nonzero;fill:rgb(100%,100%,100%);fill-opacity:1;" d="M 62.152344 23.957031 C 62.152344 24.21875 61.945312 24.425781 61.683594 24.425781 C 61.425781 24.425781 61.214844 24.21875 61.214844 23.957031 C 61.214844 23.699219 61.425781 23.488281 61.683594 23.488281 C 61.945312 23.488281 62.152344 23.699219 62.152344 23.957031 Z M 62.152344 23.957031 "/>
<path style=" stroke:none;fill-rule:nonzero;fill:rgb(100%,100%,100%);fill-opacity:1;" d="M 60.765625 23.039062 C 60.765625 23.300781 60.558594 23.507812 60.296875 23.507812 C 60.039062 23.507812 59.828125 23.300781 59.828125 23.039062 C 59.828125 22.78125 60.039062 22.570312 60.296875 22.570312 C 60.558594 22.570312 60.765625 22.78125 60.765625 23.039062 Z M 60.765625 23.039062 "/>
<path style=" stroke:none;fill-rule:nonzero;fill:rgb(100%,100%,100%);fill-opacity:1;" d="M 59.515625 22.121094 C 59.515625 22.378906 59.304688 22.589844 59.046875 22.589844 C 58.789062 22.589844 58.578125 22.378906 58.578125 22.121094 C 58.578125 21.863281 58.789062 21.652344 59.046875 21.652344 C 59.304688 21.652344 59.515625 21.863281 59.515625 22.121094 Z M 59.515625 22.121094 "/>
<path style=" stroke:none;fill-rule:nonzero;fill:rgb(100%,100%,100%);fill-opacity:1;" d="M 51.386719 35.761719 C 51.386719 36.019531 51.179688 36.230469 50.917969 36.230469 C 50.660156 36.230469 50.449219 36.019531 50.449219 35.761719 C 50.449219 35.5 50.660156 35.292969 50.917969 35.292969 C 51.179688 35.292969 51.386719 35.5 51.386719 35.761719 Z M 51.386719 35.761719 "/>
<path style=" stroke:none;fill-rule:nonzero;fill:rgb(100%,100%,100%);fill-opacity:1;" d="M 70.195312 11.351562 C 70.195312 11.613281 69.988281 11.820312 69.726562 11.820312 C 69.46875 11.820312 69.257812 11.613281 69.257812 11.351562 C 69.257812 11.09375 69.46875 10.882812 69.726562 10.882812 C 69.988281 10.882812 70.195312 11.09375 70.195312 11.351562 Z M 70.195312 11.351562 "/>
<path style=" stroke:none;fill-rule:nonzero;fill:rgb(100%,100%,100%);fill-opacity:1;" d="M 73.285156 24.875 C 73.285156 25.136719 73.074219 25.34375 72.816406 25.34375 C 72.558594 25.34375 72.347656 25.136719 72.347656 24.875 C 72.347656 24.617188 72.558594 24.40625 72.816406 24.40625 C 73.074219 24.40625 73.285156 24.617188 73.285156 24.875 Z M 73.285156 24.875 "/>
<path style=" stroke:none;fill-rule:nonzero;fill:rgb(100%,100%,100%);fill-opacity:1;" d="M 68.414062 22.234375 C 68.414062 22.496094 68.203125 22.703125 67.945312 22.703125 C 67.6875 22.703125 67.476562 22.496094 67.476562 22.234375 C 67.476562 21.976562 67.6875 21.765625 67.945312 21.765625 C 68.203125 21.765625 68.414062 21.976562 68.414062 22.234375 Z M 68.414062 22.234375 "/>
<path style=" stroke:none;fill-rule:nonzero;fill:rgb(100%,100%,100%);fill-opacity:1;" d="M 60.066406 25.828125 C 60.066406 26.085938 59.859375 26.296875 59.597656 26.296875 C 59.339844 26.296875 59.128906 26.085938 59.128906 25.828125 C 59.128906 25.566406 59.339844 25.359375 59.597656 25.359375 C 59.859375 25.359375 60.066406 25.566406 60.066406 25.828125 Z M 60.066406 25.828125 "/>
<path style=" stroke:none;fill-rule:nonzero;fill:rgb(100%,100%,100%);fill-opacity:1;" d="M 96.871094 102.792969 C 96.871094 103.050781 96.660156 103.261719 96.402344 103.261719 C 96.144531 103.261719 95.933594 103.050781 95.933594 102.792969 C 95.933594 102.535156 96.144531 102.324219 96.402344 102.324219 C 96.660156 102.324219 96.871094 102.535156 96.871094 102.792969 Z M 96.871094 102.792969 "/>
<path style=" stroke:none;fill-rule:nonzero;fill:rgb(100%,100%,100%);fill-opacity:1;" d="M 34.617188 91.285156 C 34.617188 91.542969 34.40625 91.753906 34.144531 91.753906 C 33.886719 91.753906 33.675781 91.542969 33.675781 91.285156 C 33.675781 91.023438 33.886719 90.8125 34.144531 90.8125 C 34.40625 90.8125 34.617188 91.023438 34.617188 91.285156 Z M 34.617188 91.285156 "/>
<path style=" stroke:none;fill-rule:nonzero;fill:rgb(100%,100%,100%);fill-opacity:1;" d="M 67.246094 97.335938 C 67.246094 97.59375 67.035156 97.804688 66.777344 97.804688 C 66.515625 97.804688 66.304688 97.59375 66.304688 97.335938 C 66.304688 97.074219 66.515625 96.867188 66.777344 96.867188 C 67.035156 96.867188 67.246094 97.074219 67.246094 97.335938 Z M 67.246094 97.335938 "/>
<path style=" stroke:none;fill-rule:nonzero;fill:rgb(100%,100%,100%);fill-opacity:1;" d="M 44.328125 90.90625 C 44.328125 91.167969 44.117188 91.378906 43.855469 91.378906 C 43.597656 91.378906 43.386719 91.167969 43.386719 90.90625 C 43.386719 90.648438 43.597656 90.4375 43.855469 90.4375 C 44.117188 90.4375 44.328125 90.648438 44.328125 90.90625 Z M 44.328125 90.90625 "/>
<path style=" stroke:none;fill-rule:nonzero;fill:rgb(100%,100%,100%);fill-opacity:1;" d="M 48.386719 97.535156 C 48.386719 97.792969 48.175781 98.003906 47.914062 98.003906 C 47.65625 98.003906 47.445312 97.792969 47.445312 97.535156 C 47.445312 97.273438 47.65625 97.0625 47.914062 97.0625 C 48.175781 97.0625 48.386719 97.273438 48.386719 97.535156 Z M 48.386719 97.535156 "/>
<path style=" stroke:none;fill-rule:nonzero;fill:rgb(100%,100%,100%);fill-opacity:1;" d="M 78.261719 93.359375 C 78.261719 93.621094 78.050781 93.828125 77.792969 93.828125 C 77.535156 93.828125 77.324219 93.621094 77.324219 93.359375 C 77.324219 93.101562 77.535156 92.890625 77.792969 92.890625 C 78.050781 92.890625 78.261719 93.101562 78.261719 93.359375 Z M 78.261719 93.359375 "/>
<path style=" stroke:none;fill-rule:nonzero;fill:rgb(100%,100%,100%);fill-opacity:1;" d="M 94.730469 84.0625 C 94.730469 84.320312 94.523438 84.53125 94.261719 84.53125 C 94.003906 84.53125 93.792969 84.320312 93.792969 84.0625 C 93.792969 83.804688 94.003906 83.59375 94.261719 83.59375 C 94.523438 83.59375 94.730469 83.804688 94.730469 84.0625 Z M 94.730469 84.0625 "/>
<path style=" stroke:none;fill-rule:nonzero;fill:rgb(100%,100%,100%);fill-opacity:1;" d="M 107.21875 89.769531 C 107.21875 90.027344 107.007812 90.238281 106.75 90.238281 C 106.492188 90.238281 106.28125 90.027344 106.28125 89.769531 C 106.28125 89.511719 106.492188 89.300781 106.75 89.300781 C 107.007812 89.300781 107.21875 89.511719 107.21875 89.769531 Z M 107.21875 89.769531 "/>
<path style=" stroke:none;fill-rule:nonzero;fill:rgb(100%,100%,100%);fill-opacity:1;" d="M 111.476562 92.492188 C 111.476562 92.753906 111.265625 92.960938 111.007812 92.960938 C 110.75 92.960938 110.539062 92.753906 110.539062 92.492188 C 110.539062 92.234375 110.75 92.023438 111.007812 92.023438 C 111.265625 92.023438 111.476562 92.234375 111.476562 92.492188 Z M 111.476562 92.492188 "/>
<path style=" stroke:none;fill-rule:nonzero;fill:rgb(100%,100%,100%);fill-opacity:1;" d="M 112.175781 85.0625 C 112.175781 85.324219 111.964844 85.535156 111.707031 85.535156 C 111.449219 85.535156 111.238281 85.324219 111.238281 85.0625 C 111.238281 84.804688 111.449219 84.59375 111.707031 84.59375 C 111.964844 84.59375 112.175781 84.804688 112.175781 85.0625 Z M 112.175781 85.0625 "/>
<path style=" stroke:none;fill-rule:nonzero;fill:rgb(100%,100%,100%);fill-opacity:1;" d="M 50.082031 74.546875 C 50.082031 74.804688 49.875 75.015625 49.613281 75.015625 C 49.355469 75.015625 49.144531 74.804688 49.144531 74.546875 C 49.144531 74.289062 49.355469 74.078125 49.613281 74.078125 C 49.875 74.078125 50.082031 74.289062 50.082031 74.546875 Z M 50.082031 74.546875 "/>
<path style=" stroke:none;fill-rule:nonzero;fill:rgb(100%,100%,100%);fill-opacity:1;" d="M 50.417969 85.316406 C 50.417969 85.660156 50.140625 85.941406 49.792969 85.941406 C 49.449219 85.941406 49.167969 85.660156 49.167969 85.316406 C 49.167969 84.96875 49.449219 84.6875 49.792969 84.6875 C 50.140625 84.6875 50.417969 84.96875 50.417969 85.316406 Z M 50.417969 85.316406 "/>
<path style=" stroke:none;fill-rule:nonzero;fill:rgb(100%,100%,100%);fill-opacity:1;" d="M 54.175781 93.246094 C 54.175781 93.589844 53.894531 93.871094 53.546875 93.871094 C 53.203125 93.871094 52.921875 93.589844 52.921875 93.246094 C 52.921875 92.898438 53.203125 92.617188 53.546875 92.617188 C 53.894531 92.617188 54.175781 92.898438 54.175781 93.246094 Z M 54.175781 93.246094 "/>
<path style=" stroke:none;fill-rule:nonzero;fill:rgb(100%,100%,100%);fill-opacity:1;" d="M 99.15625 84.980469 C 99.15625 85.328125 98.875 85.605469 98.53125 85.605469 C 98.183594 85.605469 97.90625 85.328125 97.90625 84.980469 C 97.90625 84.636719 98.183594 84.355469 98.53125 84.355469 C 98.875 84.355469 99.15625 84.636719 99.15625 84.980469 Z M 99.15625 84.980469 "/>
<path style=" stroke:none;fill-rule:nonzero;fill:rgb(100%,100%,100%);fill-opacity:1;" d="M 115.347656 84.0625 C 115.347656 84.410156 115.066406 84.6875 114.722656 84.6875 C 114.375 84.6875 114.09375 84.410156 114.09375 84.0625 C 114.09375 83.71875 114.375 83.4375 114.722656 83.4375 C 115.066406 83.4375 115.347656 83.71875 115.347656 84.0625 Z M 115.347656 84.0625 "/>
<path style=" stroke:none;fill-rule:nonzero;fill:rgb(100%,100%,100%);fill-opacity:1;" d="M 107.335938 80.640625 C 107.335938 80.984375 107.054688 81.265625 106.710938 81.265625 C 106.363281 81.265625 106.082031 80.984375 106.082031 80.640625 C 106.082031 80.292969 106.363281 80.015625 106.710938 80.015625 C 107.054688 80.015625 107.335938 80.292969 107.335938 80.640625 Z M 107.335938 80.640625 "/>
<path style=" stroke:none;fill-rule:nonzero;fill:rgb(100%,100%,100%);fill-opacity:1;" d="M 99.15625 80.972656 C 99.15625 81.320312 98.875 81.601562 98.53125 81.601562 C 98.183594 81.601562 97.90625 81.320312 97.90625 80.972656 C 97.90625 80.628906 98.183594 80.347656 98.53125 80.347656 C 98.875 80.347656 99.15625 80.628906 99.15625 80.972656 Z M 99.15625 80.972656 "/>
<path style=" stroke:none;fill-rule:nonzero;fill:rgb(100%,100%,100%);fill-opacity:1;" d="M 81.660156 17.097656 L 83.214844 16.949219 L 81.664062 16.859375 C 81.613281 16.558594 81.375 16.324219 81.070312 16.285156 L 80.921875 14.734375 L 80.832031 16.296875 C 80.550781 16.359375 80.335938 16.59375 80.300781 16.886719 L 78.710938 17.03125 L 80.3125 17.117188 C 80.371094 17.386719 80.585938 17.597656 80.859375 17.648438 L 81.003906 19.246094 L 81.089844 17.648438 C 81.378906 17.601562 81.605469 17.378906 81.660156 17.097656 Z M 81.660156 17.097656 "/>
<path style=" stroke:none;fill-rule:nonzero;fill:rgb(100%,100%,100%);fill-opacity:1;" d="M 55.390625 34.429688 L 56.949219 34.28125 L 55.394531 34.191406 C 55.347656 33.890625 55.105469 33.65625 54.800781 33.617188 L 54.652344 32.066406 L 54.566406 33.628906 C 54.28125 33.691406 54.066406 33.929688 54.03125 34.21875 L 52.441406 34.363281 L 54.042969 34.453125 C 54.101562 34.71875 54.320312 34.929688 54.589844 34.980469 L 54.738281 36.578125 L 54.824219 34.984375 C 55.109375 34.9375 55.339844 34.714844 55.390625 34.429688 Z M 55.390625 34.429688 "/>
<path style=" stroke:none;fill-rule:nonzero;fill:rgb(100%,100%,100%);fill-opacity:1;" d="M 113.582031 80.257812 L 115.136719 80.105469 L 113.582031 80.019531 C 113.535156 79.71875 113.292969 79.484375 112.992188 79.445312 L 112.839844 77.894531 L 112.753906 79.457031 C 112.472656 79.519531 112.257812 79.753906 112.222656 80.046875 L 110.632812 80.191406 L 112.234375 80.277344 C 112.292969 80.546875 112.507812 80.757812 112.78125 80.808594 L 112.925781 82.402344 L 113.011719 80.808594 C 113.296875 80.761719 113.527344 80.542969 113.582031 80.257812 Z M 113.582031 80.257812 "/>
<path style=" stroke:none;fill-rule:nonzero;fill:rgb(100%,100%,100%);fill-opacity:1;" d="M 50.132812 104.21875 L 51.691406 104.066406 L 50.136719 103.980469 C 50.089844 103.679688 49.847656 103.445312 49.542969 103.40625 L 49.394531 101.855469 L 49.308594 103.417969 C 49.023438 103.480469 48.808594 103.714844 48.773438 104.007812 L 47.183594 104.152344 L 48.785156 104.238281 C 48.84375 104.507812 49.0625 104.71875 49.335938 104.769531 L 49.480469 106.363281 L 49.566406 104.769531 C 49.851562 104.722656 50.082031 104.5 50.132812 104.21875 Z M 50.132812 104.21875 "/>
<path style=" stroke:none;fill-rule:nonzero;fill:rgb(100%,100%,100%);fill-opacity:1;" d="M 108.636719 92.53125 L 110.191406 92.382812 L 108.636719 92.292969 C 108.589844 91.992188 108.347656 91.757812 108.046875 91.71875 L 107.898438 90.167969 L 107.808594 91.730469 C 107.527344 91.792969 107.3125 92.027344 107.277344 92.320312 L 105.6875 92.464844 L 107.289062 92.550781 C 107.347656 92.820312 107.566406 93.03125 107.835938 93.078125 L 107.980469 94.675781 L 108.066406 93.082031 C 108.351562 93.035156 108.582031 92.8125 108.636719 92.53125 Z M 108.636719 92.53125 "/>
<path style=" stroke:none;fill-rule:nonzero;fill:rgb(98.823529%,23.921569%,12.941176%);fill-opacity:1;" d="M 82.855469 49.230469 C 76.363281 51.753906 70.03125 54.007812 64.6875 55.679688 C 53.832031 59.082031 24.128906 68.285156 6.1875 79.890625 L 7.6875 80.472656 C 18.621094 74.296875 25.726562 72.355469 32.558594 70.207031 C 39.984375 67.867188 63.996094 62.246094 74.871094 59.1875 C 78.542969 58.152344 82.84375 56.796875 87.402344 55.152344 C 86.34375 53.671875 85.222656 52.1875 84.046875 50.707031 C 83.652344 50.210938 83.253906 49.71875 82.855469 49.230469 Z M 90.785156 60.164062 C 89.214844 61.226562 87.894531 62.074219 86.972656 62.609375 C 81.632812 65.699219 55.59375 83.476562 49.667969 87.570312 C 43.746094 91.660156 27.304688 107.1875 22.464844 111.695312 L 22.296875 113.527344 C 37.902344 99.503906 42.796875 96.046875 49 91.324219 C 56.679688 85.480469 72.5625 74.671875 77.960938 71.207031 C 83.121094 67.894531 87.773438 64.851562 91.953125 62.0625 C 91.882812 61.949219 91.816406 61.835938 91.746094 61.71875 C 91.433594 61.203125 91.113281 60.6875 90.785156 60.164062 Z M 115.179688 34.394531 C 107.578125 38.851562 95.59375 44.230469 83.96875 48.796875 C 84.246094 49.136719 84.523438 49.480469 84.800781 49.828125 C 86.097656 51.464844 87.324219 53.109375 88.476562 54.757812 C 97.617188 51.390625 107.640625 46.871094 115.597656 41.402344 C 111.808594 44.996094 99.277344 54.363281 91.636719 59.585938 C 92.03125 60.226562 92.410156 60.867188 92.78125 61.507812 C 104.355469 53.757812 112.144531 48.054688 116.683594 44.242188 C 122.941406 38.984375 137.214844 27.210938 142.636719 11.433594 C 133.121094 23.539062 121.871094 30.46875 115.179688 34.394531 Z M 115.179688 34.394531 "/>
<path style=" stroke:none;fill-rule:nonzero;fill:rgb(100%,100%,100%);fill-opacity:1;" d="M 62.429688 76.4375 C 61.199219 74.886719 59.496094 72.8125 58.21875 71.203125 C 56.507812 69.050781 54.925781 66.875 53.476562 64.703125 C 53.003906 64.820312 52.535156 64.9375 52.0625 65.058594 C 53.8125 67.789062 55.753906 70.515625 57.871094 73.179688 C 59.417969 75.128906 60.824219 76.695312 61.546875 77.671875 C 61.691406 77.871094 61.980469 78.308594 62.371094 78.886719 C 62.820312 78.582031 63.277344 78.273438 63.734375 77.960938 C 63.292969 77.480469 62.855469 76.972656 62.429688 76.4375 Z M 71.414062 84.59375 C 70.402344 83.636719 67.953125 82.039062 65.398438 79.640625 C 64.835938 80.027344 64.265625 80.421875 63.695312 80.816406 C 65.34375 83.140625 67.589844 85.992188 69.347656 86.824219 C 71.996094 88.078125 72.710938 85.824219 71.414062 84.59375 Z M 84.800781 49.828125 C 70.207031 31.453125 52.378906 21.359375 44.691406 27.46875 C 38.722656 32.210938 41.171875 46.078125 49.402344 60.644531 C 49.828125 60.5 50.25 60.355469 50.667969 60.210938 C 42.363281 46.023438 40.089844 32.832031 45.71875 28.359375 C 52.792969 22.734375 69.878906 32.867188 84.050781 50.707031 C 86.984375 54.398438 89.5625 58.105469 91.746094 61.71875 C 100.109375 75.5625 102.675781 88.082031 96.894531 93.191406 C 95.128906 94.757812 89.726562 95.371094 82.648438 92.183594 C 82.550781 92.308594 82.710938 92.644531 82.832031 92.726562 C 88.941406 95.183594 94.792969 96.117188 97.746094 93.769531 C 104.847656 88.128906 99.394531 68.199219 84.800781 49.828125 Z M 84.800781 49.828125 "/>
<path style=" stroke:none;fill-rule:nonzero;fill:rgb(100%,100%,100%);fill-opacity:1;" d="M 22.210938 52.007812 L 31.558594 52.007812 L 39.402344 65.320312 C 39.402344 65.320312 39.402344 55.679688 39.402344 54.929688 C 39.402344 53.761719 37.921875 52.238281 37.398438 52.007812 C 38.027344 52.007812 43.492188 52.007812 43.867188 52.007812 C 43.472656 52.109375 42.199219 53.65625 42.199219 54.929688 C 42.199219 55.554688 42.199219 69.539062 42.199219 70.207031 C 42.199219 71.144531 43.554688 72.4375 44.203125 72.9375 L 35.1875 72.9375 L 27.21875 59.5625 C 27.21875 59.5625 27.21875 69.539062 27.21875 70.078125 C 27.21875 71.125 28.242188 72.125 29.304688 72.980469 L 22.421875 72.980469 C 23.402344 72.5625 24.339844 71.25 24.421875 70.207031 C 24.507812 69.160156 24.421875 55.699219 24.421875 55.117188 C 24.421875 53.84375 23.191406 52.800781 22.210938 52.007812 Z M 22.210938 52.007812 "/>
<path style=" stroke:none;fill-rule:nonzero;fill:rgb(100%,100%,100%);fill-opacity:1;" d="M 107.710938 72.9375 L 120.144531 72.9375 C 119.457031 72.773438 118.683594 71.957031 118.269531 70.871094 C 117.851562 69.789062 111.257812 52.007812 111.257812 52.007812 L 106.53125 52.007812 C 105.1875 52.972656 103.753906 53.992188 102.21875 55.0625 C 102.214844 55.101562 102.210938 55.140625 102.203125 55.179688 C 101.996094 56.429688 98.296875 69.835938 98.070312 70.496094 C 97.757812 71.414062 96.152344 72.4375 95.503906 72.980469 L 102.203125 72.980469 C 101.535156 72.230469 100.992188 71.5 101.117188 70.664062 C 101.242188 69.828125 101.617188 68.160156 101.617188 68.160156 L 108.546875 68.160156 C 108.859375 68.996094 109.089844 69.746094 109.210938 70.457031 C 109.359375 71.3125 108.484375 72.269531 107.710938 72.9375 Z M 102.246094 65.488281 L 104.582031 57.851562 L 107.667969 65.488281 Z M 101.191406 52.769531 C 101.535156 52.515625 101.878906 52.261719 102.222656 52.007812 L 100.410156 52.007812 C 100.589844 52.175781 100.886719 52.4375 101.191406 52.769531 Z M 101.191406 52.769531 "/>
<path style=" stroke:none;fill-rule:nonzero;fill:rgb(100%,100%,100%);fill-opacity:1;" d="M 53.632812 70.664062 C 53.757812 69.828125 54.132812 68.160156 54.132812 68.160156 L 61.058594 68.160156 C 61.371094 68.996094 61.605469 69.746094 61.726562 70.457031 C 61.875 71.3125 60.996094 72.269531 60.226562 72.9375 L 71.171875 72.9375 C 71.402344 72.785156 71.628906 72.632812 71.855469 72.480469 C 71.429688 72.105469 71.039062 71.542969 70.78125 70.871094 C 70.363281 69.789062 63.773438 52.007812 63.773438 52.007812 L 52.921875 52.007812 C 53.445312 52.488281 54.945312 53.78125 54.71875 55.179688 C 54.511719 56.429688 50.8125 69.835938 50.585938 70.496094 C 50.273438 71.414062 48.667969 72.4375 48.019531 72.980469 L 54.71875 72.980469 C 54.050781 72.230469 53.507812 71.5 53.632812 70.664062 Z M 57.09375 57.851562 L 60.183594 65.488281 L 54.757812 65.488281 Z M 57.09375 57.851562 "/>
<path style=" stroke:none;fill-rule:nonzero;fill:rgb(100%,100%,100%);fill-opacity:1;" d="M 91.449219 62.398438 C 89.40625 63.757812 87.253906 65.179688 84.984375 66.660156 C 86 67.15625 86.8125 67.777344 86.890625 68.578125 C 87.035156 70.082031 84.011719 70.808594 81.277344 70.496094 C 80.730469 70.433594 80.195312 70.292969 79.683594 70.097656 C 79.113281 70.464844 78.542969 70.835938 77.960938 71.207031 C 77.371094 71.585938 76.652344 72.054688 75.832031 72.59375 L 75.832031 74.753906 C 76.375 73.691406 77.5625 72.738281 78.480469 72.6875 C 78.878906 72.667969 80.253906 73.941406 85.929688 73.628906 C 88.683594 73.476562 94.003906 70.539062 93.921875 67.160156 C 93.871094 65.160156 92.828125 63.601562 91.449219 62.398438 Z M 75.832031 67.617188 L 75.832031 69.820312 C 76.332031 69.484375 76.828125 69.152344 77.3125 68.832031 C 76.550781 68.300781 76.007812 67.804688 75.832031 67.617188 Z M 89.507812 61.015625 C 88.980469 60.703125 88.445312 60.429688 87.933594 60.1875 C 85.261719 58.933594 82.464844 58.703125 81.882812 57.015625 C 81.46875 55.820312 82.632812 54.71875 85.46875 54.761719 C 88.308594 54.800781 90.9375 56.492188 91.644531 57.097656 L 91.644531 51.714844 C 91.4375 51.921875 90.523438 52.972656 89.683594 52.796875 C 88.078125 52.464844 85.34375 52.027344 82.214844 52.046875 C 78.625 52.066406 75.539062 54.84375 75.433594 58.351562 C 75.289062 63.253906 79.210938 64.589844 81.421875 65.363281 C 81.652344 65.441406 81.910156 65.527344 82.191406 65.617188 C 84.3125 64.238281 85.992188 63.171875 86.972656 62.605469 C 87.632812 62.226562 88.496094 61.683594 89.507812 61.015625 Z M 89.507812 61.015625 "/>
</g>
</svg>
